<svg xmlns="http://www.w3.org/2000/svg" width="2048" height="2048" viewBox="0 0 51 51" shape-rendering="crispEdges"><path fill="#FFFFFF" d="M0 0h51v51H0z"/><path stroke="#000000" d="M1 1.5h7m1 0h1m2 0h3m6 0h1m3 0h1m1 0h1m2 0h2m2 0h3m4 0h1m1 0h7M1 2.5h1m5 0h1m1 0h1m5 0h1m1 0h2m2 0h1m2 0h3m2 0h1m1 0h2m1 0h2m3 0h3m1 0h1m5 0h1M1 3.5h1m1 0h3m1 0h1m1 0h4m4 0h4m1 0h1m1 0h5m3 0h1m1 0h1m3 0h1m1 0h2m1 0h1m1 0h3m1 0h1M1 4.5h1m1 0h3m1 0h1m2 0h1m1 0h3m1 0h4m1 0h3m1 0h1m5 0h2m5 0h1m1 0h1m2 0h1m1 0h3m1 0h1M1 5.5h1m1 0h3m1 0h1m2 0h2m2 0h1m1 0h1m1 0h1m1 0h1m1 0h6m1 0h2m1 0h2m2 0h1m6 0h1m1 0h3m1 0h1M1 6.5h1m5 0h1m1 0h2m2 0h2m2 0h1m1 0h1m2 0h2m3 0h3m1 0h1m1 0h3m2 0h2m3 0h1m5 0h1M1 7.5h7m1 0h1m1 0h1m1 0h1m1 0h1m1 0h1m1 0h1m1 0h1m1 0h1m1 0h1m1 0h1m1 0h1m1 0h1m1 0h1m1 0h1m1 0h1m1 0h1m1 0h1m1 0h7M9 8.5h1m3 0h1m2 0h1m3 0h1m2 0h1m3 0h3m3 0h2m2 0h1m1 0h2M3 9.5h3m1 0h1m1 0h1m1 0h1m1 0h2m4 0h2m2 0h9m1 0h4m1 0h1m1 0h1m1 0h3m2 0h3M6 10.5h1m2 0h1m2 0h1m2 0h4m3 0h1m1 0h1m1 0h1m1 0h4m1 0h2m3 0h1m1 0h1m1 0h2m2 0h1m1 0h2M3 11.5h8m4 0h1m1 0h1m2 0h1m1 0h3m2 0h1m4 0h5m2 0h2m1 0h1m2 0h1m3 0h1M1 12.5h2m2 0h2m7 0h2m1 0h1m1 0h1m2 0h1m2 0h2m1 0h1m1 0h3m2 0h1m3 0h4m5 0h1M1 13.5h4m1 0h5m2 0h3m3 0h1m1 0h2m3 0h1m2 0h2m2 0h1m1 0h4m1 0h3m4 0h2M1 14.5h1m3 0h1m2 0h2m1 0h1m2 0h1m2 0h1m1 0h1m2 0h1m4 0h1m9 0h1m2 0h1m1 0h2m2 0h1m2 0h1M4 15.5h1m2 0h5m1 0h1m1 0h1m2 0h2m1 0h1m1 0h2m3 0h2m3 0h4m2 0h1m1 0h1m3 0h1m3 0h1M1 16.5h2m1 0h2m2 0h1m1 0h2m6 0h5m2 0h1m1 0h1m6 0h1m1 0h1m4 0h2m2 0h2m1 0h1M1 17.5h2m1 0h1m1 0h2m2 0h1m1 0h4m1 0h1m1 0h2m2 0h2m1 0h1m1 0h1m2 0h2m3 0h3m1 0h1M2 18.5h1m1 0h1m3 0h6m2 0h1m3 0h1m2 0h3m2 0h2m3 0h2m1 0h2m3 0h2m2 0h1m3 0h1M2 19.5h4m1 0h4m2 0h1m4 0h1m1 0h2m3 0h2m2 0h4m3 0h3m1 0h2m1 0h4M1 20.5h1m1 0h1m1 0h1m2 0h1m3 0h3m2 0h3m1 0h2m6 0h1m1 0h1m1 0h3m1 0h1m3 0h3m4 0h2M2 21.5h1m2 0h1m1 0h1m6 0h1m2 0h1m1 0h1m1 0h1m1 0h2m1 0h2m5 0h2m1 0h1m4 0h4m1 0h1m2 0h1M1 22.5h2m5 0h3m3 0h1m1 0h1m5 0h1m1 0h1m1 0h1m1 0h1m2 0h2m1 0h3m2 0h1m2 0h4m1 0h3M3 23.5h7m1 0h1m1 0h3m2 0h1m1 0h8m1 0h2m2 0h1m1 0h3m2 0h6m1 0h3M1 24.5h1m2 0h2m3 0h2m2 0h1m1 0h1m1 0h1m1 0h5m3 0h1m2 0h1m3 0h2m4 0h2m3 0h1M2 25.5h1m1 0h2m1 0h1m1 0h1m1 0h1m2 0h5m1 0h1m2 0h1m1 0h1m1 0h8m4 0h1m1 0h1m1 0h1m1 0h1m1 0h3M1 26.5h1m2 0h2m3 0h2m1 0h1m3 0h8m3 0h1m5 0h1m1 0h1m1 0h1m1 0h1m1 0h1m3 0h1m3 0h1M1 27.5h1m1 0h1m1 0h5m1 0h6m1 0h1m1 0h2m1 0h5m1 0h1m2 0h2m1 0h1m1 0h9m1 0h2M1 28.5h1m1 0h1m1 0h1m2 0h2m2 0h2m5 0h1m2 0h5m1 0h2m11 0h1m1 0h1m1 0h3M2 29.5h1m4 0h2m1 0h2m3 0h1m6 0h2m2 0h4m4 0h1m3 0h1m1 0h2m1 0h2m3 0h1M1 30.5h1m3 0h2m1 0h1m1 0h8m1 0h1m1 0h2m9 0h2m1 0h2m4 0h1m4 0h2M5 31.5h3m1 0h2m2 0h1m5 0h4m2 0h1m2 0h1m1 0h2m2 0h1m1 0h2m2 0h1m2 0h2m1 0h4M1 32.5h3m5 0h3m1 0h4m1 0h1m1 0h1m1 0h6m4 0h1m1 0h1m1 0h8m5 0h1M3 33.5h6m3 0h1m1 0h2m2 0h1m1 0h2m1 0h1m3 0h1m1 0h1m4 0h1m2 0h2m1 0h1m2 0h1m1 0h2M1 34.5h1m1 0h2m1 0h1m1 0h3m2 0h2m1 0h3m1 0h4m1 0h1m5 0h2m3 0h3m2 0h1m2 0h1m3 0h1M3 35.5h3m1 0h1m2 0h6m1 0h2m1 0h1m1 0h2m1 0h7m3 0h1m1 0h1m1 0h1m6 0h1M1 36.5h1m2 0h1m4 0h2m3 0h1m2 0h2m2 0h3m4 0h1m2 0h4m7 0h1m3 0h1m1 0h2M2 37.5h1m1 0h2m1 0h1m4 0h2m2 0h1m4 0h2m3 0h1m1 0h5m3 0h2m3 0h1m1 0h2m1 0h2M2 38.5h1m1 0h3m1 0h1m1 0h7m2 0h1m3 0h3m1 0h5m6 0h1m3 0h1m4 0h1M2 39.5h1m3 0h5m2 0h1m2 0h2m1 0h1m1 0h2m1 0h1m1 0h1m2 0h1m2 0h1m2 0h3m1 0h5m2 0h2M2 40.5h3m5 0h3m1 0h1m3 0h2m1 0h1m3 0h1m3 0h1m3 0h1m1 0h1m2 0h5m1 0h1m2 0h1M1 41.5h3m3 0h2m7 0h1m2 0h11m1 0h2m1 0h4m1 0h8m1 0h1M9 42.5h2m1 0h3m1 0h3m3 0h2m3 0h1m1 0h3m3 0h7m3 0h1m1 0h3M1 43.5h7m6 0h1m1 0h3m4 0h1m1 0h1m1 0h1m1 0h1m2 0h1m1 0h1m1 0h1m4 0h1m1 0h1m1 0h1m1 0h3M1 44.5h1m5 0h1m2 0h1m4 0h9m3 0h1m1 0h2m1 0h1m3 0h2m1 0h1m1 0h1m3 0h1m3 0h1M1 45.5h1m1 0h3m1 0h1m1 0h6m1 0h2m1 0h3m1 0h5m5 0h1m3 0h1m1 0h1m1 0h6m1 0h1M1 46.5h1m1 0h3m1 0h1m1 0h1m3 0h3m1 0h2m1 0h1m1 0h3m1 0h2m2 0h1m1 0h1m1 0h2m1 0h1m4 0h1m6 0h1M1 47.5h1m1 0h3m1 0h1m1 0h1m1 0h4m1 0h2m2 0h1m1 0h1m2 0h1m1 0h3m1 0h1m1 0h1m2 0h1m1 0h3m3 0h1m1 0h1m2 0h1M1 48.5h1m5 0h1m4 0h4m1 0h1m1 0h4m1 0h2m1 0h1m4 0h4m1 0h3m2 0h6m1 0h1M1 49.5h7m4 0h1m2 0h1m1 0h2m3 0h3m1 0h2m4 0h1m1 0h1m1 0h2m1 0h2m3 0h6"/></svg>
