<svg xmlns="http://www.w3.org/2000/svg" width="2048" height="2048" viewBox="0 0 59 59" shape-rendering="crispEdges"><path fill="#FFFFFF" d="M0 0h59v59H0z"/><path stroke="#000000" d="M1 1.5h7m1 0h1m1 0h4m1 0h1m1 0h1m1 0h2m1 0h1m1 0h2m1 0h1m1 0h1m7 0h4m1 0h2m1 0h3m2 0h7M1 2.5h1m5 0h1m2 0h2m2 0h1m3 0h2m4 0h1m1 0h1m2 0h2m1 0h4m4 0h1m3 0h1m1 0h1m1 0h1m2 0h1m5 0h1M1 3.5h1m1 0h3m1 0h1m1 0h2m1 0h3m1 0h3m2 0h2m1 0h1m1 0h1m1 0h1m1 0h1m1 0h1m1 0h1m2 0h2m1 0h1m1 0h2m3 0h2m2 0h1m1 0h3m1 0h1M1 4.5h1m1 0h3m1 0h1m2 0h3m1 0h5m9 0h1m1 0h1m4 0h1m2 0h1m2 0h1m4 0h1m1 0h1m2 0h1m1 0h3m1 0h1M1 5.5h1m1 0h3m1 0h1m1 0h2m1 0h1m1 0h5m4 0h1m3 0h6m4 0h2m1 0h1m2 0h1m4 0h1m2 0h1m1 0h3m1 0h1M1 6.5h1m5 0h1m2 0h1m2 0h2m2 0h3m3 0h1m3 0h1m3 0h2m3 0h2m1 0h2m2 0h1m3 0h1m3 0h1m5 0h1M1 7.5h7m1 0h1m1 0h1m1 0h1m1 0h1m1 0h1m1 0h1m1 0h1m1 0h1m1 0h1m1 0h1m1 0h1m1 0h1m1 0h1m1 0h1m1 0h1m1 0h1m1 0h1m1 0h1m1 0h1m1 0h1m1 0h1m1 0h7M9 8.5h1m1 0h1m4 0h1m1 0h2m1 0h2m3 0h2m3 0h1m3 0h1m1 0h3m2 0h1m5 0h1M6 9.5h2m3 0h1m2 0h1m3 0h1m5 0h1m1 0h7m6 0h2m1 0h4m5 0h1m1 0h1m1 0h1m1 0h1M1 10.5h3m1 0h2m3 0h7m1 0h2m1 0h2m1 0h3m1 0h1m2 0h1m1 0h2m3 0h1m2 0h2m4 0h1m4 0h3M2 11.5h6m1 0h1m1 0h2m2 0h3m2 0h1m4 0h6m3 0h1m2 0h1m6 0h2m2 0h5m1 0h2M4 12.5h3m2 0h1m7 0h1m1 0h2m1 0h1m1 0h1m1 0h1m3 0h1m2 0h4m1 0h2m1 0h2m2 0h4m2 0h1m2 0h1M6 13.5h4m2 0h1m3 0h1m3 0h4m1 0h1m3 0h2m1 0h1m6 0h1m4 0h1m1 0h1m1 0h4m1 0h2m1 0h1M2 14.5h3m3 0h3m6 0h1m2 0h5m2 0h1m6 0h2m1 0h2m1 0h1m2 0h1m2 0h1m4 0h4M1 15.5h1m2 0h2m1 0h2m1 0h2m2 0h6m1 0h2m1 0h1m1 0h1m2 0h1m2 0h1m2 0h1m3 0h3m2 0h2m3 0h1m1 0h1m1 0h1m1 0h1M1 16.5h4m5 0h1m1 0h1m1 0h2m1 0h1m3 0h1m5 0h1m1 0h1m3 0h3m1 0h3m1 0h2m2 0h1m1 0h2m1 0h1m2 0h1m1 0h3M2 17.5h2m1 0h1m1 0h3m1 0h3m2 0h6m2 0h2m5 0h13m2 0h1m6 0h1m3 0h1M1 18.5h4m4 0h1m3 0h2m1 0h4m3 0h3m3 0h1m1 0h8m1 0h1m2 0h2m4 0h3m1 0h2m2 0h1M1 19.5h2m1 0h2m1 0h1m2 0h2m1 0h3m2 0h5m5 0h1m6 0h6m1 0h1m3 0h5m3 0h1m2 0h1M1 20.5h1m2 0h2m3 0h1m5 0h1m2 0h1m1 0h2m2 0h1m1 0h1m1 0h6m2 0h2m1 0h1m1 0h2m2 0h2m1 0h1m1 0h2m2 0h2M6 21.5h2m1 0h3m1 0h1m1 0h4m2 0h1m1 0h1m1 0h3m4 0h1m1 0h4m1 0h2m1 0h1m4 0h1m4 0h1m3 0h1M1 22.5h3m1 0h1m4 0h2m2 0h3m1 0h3m4 0h2m1 0h1m2 0h2m1 0h6m3 0h1m1 0h3m1 0h1m1 0h1m1 0h2m2 0h1M1 23.5h1m4 0h2m1 0h4m4 0h2m1 0h2m2 0h2m2 0h3m2 0h2m5 0h2m2 0h3m4 0h1M1 24.5h4m3 0h1m1 0h1m2 0h3m3 0h3m1 0h4m2 0h1m1 0h2m1 0h1m2 0h4m2 0h1m1 0h7m2 0h1M1 25.5h1m2 0h2m1 0h1m3 0h4m2 0h2m1 0h2m1 0h4m1 0h3m1 0h1m2 0h1m1 0h5m1 0h1m1 0h6m1 0h6M1 26.5h1m3 0h1m2 0h3m2 0h2m1 0h1m6 0h2m1 0h1m2 0h1m1 0h5m1 0h4m2 0h1m1 0h2m3 0h1m3 0h3M2 27.5h2m1 0h5m2 0h4m1 0h3m1 0h1m1 0h1m3 0h5m2 0h4m2 0h1m1 0h5m2 0h5M2 28.5h2m1 0h1m3 0h2m3 0h1m5 0h5m2 0h1m3 0h2m5 0h1m3 0h1m2 0h3m1 0h1m3 0h5M1 29.5h1m1 0h1m1 0h1m1 0h1m1 0h1m1 0h5m1 0h1m1 0h1m1 0h1m5 0h1m1 0h1m1 0h4m2 0h1m4 0h2m2 0h1m2 0h1m1 0h1m1 0h3M2 30.5h2m1 0h1m3 0h1m1 0h1m1 0h2m3 0h1m1 0h1m1 0h1m1 0h1m1 0h2m3 0h1m1 0h3m2 0h2m1 0h2m2 0h1m3 0h1m3 0h1m1 0h1M2 31.5h8m1 0h1m2 0h4m2 0h1m1 0h1m2 0h7m1 0h2m3 0h1m3 0h1m2 0h9m2 0h1M2 32.5h3m6 0h2m1 0h1m5 0h1m1 0h2m3 0h4m1 0h1m1 0h2m1 0h3m1 0h1m3 0h3m3 0h2m1 0h1m1 0h1M1 33.5h1m4 0h2m2 0h1m1 0h2m2 0h1m1 0h1m2 0h2m1 0h2m1 0h2m1 0h1m3 0h1m2 0h1m3 0h1m2 0h3m3 0h3m1 0h4M5 34.5h2m1 0h1m2 0h1m3 0h1m1 0h1m1 0h3m2 0h3m1 0h3m1 0h1m2 0h1m1 0h1m3 0h1m1 0h2m8 0h1m3 0h1M1 35.5h3m1 0h1m1 0h1m1 0h2m1 0h1m4 0h1m3 0h4m1 0h1m3 0h1m1 0h5m2 0h1m1 0h1m1 0h1m1 0h3m1 0h1m1 0h2m2 0h2M1 36.5h1m1 0h1m4 0h2m1 0h1m1 0h1m7 0h4m2 0h1m2 0h1m3 0h1m1 0h1m4 0h3m1 0h2m5 0h1m2 0h1m1 0h1M4 37.5h4m2 0h5m7 0h3m2 0h1m1 0h4m1 0h2m1 0h4m3 0h4m1 0h6M2 38.5h1m3 0h1m2 0h1m2 0h1m1 0h1m1 0h1m3 0h1m2 0h1m5 0h1m1 0h1m2 0h1m1 0h1m5 0h2m4 0h1m1 0h1m1 0h1m4 0h1M1 39.5h3m1 0h4m3 0h2m2 0h3m5 0h3m1 0h4m1 0h3m5 0h1m1 0h1m2 0h1m1 0h2m3 0h5M1 40.5h5m2 0h1m6 0h1m1 0h1m1 0h5m1 0h1m1 0h1m2 0h1m1 0h1m1 0h3m2 0h1m2 0h1m1 0h3m1 0h1m1 0h4m2 0h2M1 41.5h1m2 0h1m1 0h6m1 0h3m11 0h1m1 0h1m1 0h3m4 0h1m1 0h4m2 0h3m2 0h3m1 0h3M3 42.5h1m1 0h2m2 0h1m1 0h1m1 0h1m4 0h2m1 0h2m1 0h2m1 0h1m5 0h4m7 0h1m1 0h2m2 0h3m1 0h1m2 0h1M1 43.5h1m2 0h1m1 0h3m3 0h1m1 0h2m4 0h3m2 0h4m1 0h4m2 0h1m2 0h1m2 0h1m1 0h4m1 0h1m1 0h2m1 0h3M3 44.5h1m4 0h1m1 0h1m1 0h1m1 0h1m1 0h4m2 0h1m1 0h3m2 0h2m1 0h1m2 0h5m2 0h1m2 0h4m4 0h1m2 0h1M3 45.5h7m4 0h5m3 0h1m2 0h1m3 0h2m8 0h1m1 0h1m1 0h2m2 0h2m2 0h1m1 0h1m1 0h1m1 0h1M3 46.5h1m8 0h2m3 0h1m1 0h1m2 0h4m3 0h1m2 0h1m2 0h1m1 0h2m1 0h5m2 0h1m3 0h1m1 0h2m2 0h1M1 47.5h1m1 0h1m2 0h3m1 0h2m1 0h1m7 0h1m2 0h6m7 0h1m2 0h2m1 0h2m1 0h5m4 0h1M1 48.5h5m5 0h1m1 0h1m1 0h3m3 0h8m1 0h6m2 0h2m1 0h2m4 0h1m2 0h1m1 0h4m1 0h1M7 49.5h1m1 0h2m1 0h2m2 0h1m5 0h1m1 0h1m2 0h6m5 0h1m1 0h1m2 0h2m1 0h1m2 0h8M9 50.5h2m2 0h1m1 0h6m1 0h1m1 0h1m1 0h2m3 0h4m1 0h4m1 0h2m2 0h1m2 0h2m3 0h2m1 0h1M1 51.5h7m3 0h3m3 0h1m2 0h3m1 0h1m1 0h2m1 0h1m1 0h4m8 0h4m2 0h1m1 0h1m1 0h1m1 0h1M1 52.5h1m5 0h1m1 0h3m2 0h2m1 0h1m2 0h1m6 0h1m3 0h2m2 0h1m1 0h2m3 0h1m3 0h4m3 0h1m2 0h1M1 53.5h1m1 0h3m1 0h1m2 0h1m2 0h3m3 0h3m2 0h1m2 0h9m2 0h1m2 0h1m1 0h1m1 0h9m2 0h1M1 54.5h1m1 0h3m1 0h1m2 0h1m3 0h1m4 0h1m1 0h1m1 0h2m3 0h1m1 0h2m1 0h4m4 0h1m2 0h1m4 0h1m1 0h1m3 0h1M1 55.5h1m1 0h3m1 0h1m2 0h1m1 0h4m4 0h1m2 0h3m2 0h1m2 0h2m1 0h5m1 0h1m1 0h1m3 0h1m2 0h1m3 0h1m1 0h3M1 56.5h1m5 0h1m4 0h2m1 0h1m1 0h1m5 0h1m6 0h2m2 0h1m7 0h1m3 0h1m3 0h2m3 0h1M1 57.5h7m3 0h2m2 0h3m3 0h2m1 0h1m8 0h1m1 0h1m2 0h2m1 0h1m4 0h1m1 0h1m2 0h1m2 0h3"/></svg>
