
<svg width="2048" height="2048" viewBox="0 0 2048 2048" xmlns="http://www.w3.org/2000/svg">
  <defs>
    <!-- Gradient backgrounds -->
    <linearGradient id="bgGradient" x1="0%" y1="0%" x2="100%" y2="100%">
      <stop offset="0%" style="stop-color:#065f46;stop-opacity:1" />
      <stop offset="100%" style="stop-color:#10b981;stop-opacity:1" />
    </linearGradient>
    
    <!-- Glow effect -->
    <filter id="glow">
      <feGaussianBlur stdDeviation="3" result="coloredBlur"/>
      <feMerge> 
        <feMergeNode in="coloredBlur"/>
        <feMergeNode in="SourceGraphic"/>
      </feMerge>
    </filter>
    
    <!-- Drop shadow -->
    <filter id="dropshadow" x="-20%" y="-20%" width="140%" height="140%">
      <feDropShadow dx="0" dy="4" stdDeviation="8" flood-color="rgba(0,0,0,0.3)"/>
    </filter>
  </defs>
  
  <!-- Background with gradient -->
  <rect width="2048" height="2048" fill="url(#bgGradient)" rx="20"/>
  
  <!-- Decorative corner elements -->
  <g stroke="#ffffff" stroke-width="3" fill="none" opacity="0.3">
    <!-- Top left corner -->
    <path d="M 30 30 L 30 60 M 30 30 L 60 30"/>
    <!-- Top right corner -->
    <path d="M 2018 30 L 2018 60 M 2018 30 L 1988 30"/>
    <!-- Bottom left corner -->
    <path d="M 30 2018 L 30 1988 M 30 2018 L 60 2018"/>
    <!-- Bottom right corner -->
    <path d="M 2018 2018 L 2018 1988 M 2018 2018 L 1988 2018"/>
  </g>
  
  <!-- Main QR code area background -->
  <rect x="50" y="100" width="1948" height="1948" 
        fill="#ffffff" rx="15" filter="url(#dropshadow)"/>
  
  <!-- QR Code -->
  <g transform="translate(60, 110)">
    <path fill="#065f46" fill="#065f46" d="M0 0h43v43H0z"/><path fill="#065f46" stroke="#ffffff" d="M1 1.5h7m5 0h1m1 0h1m1 0h1m2 0h4m4 0h2m5 0h7M1 2.5h1m5 0h1m2 0h3m1 0h1m1 0h1m1 0h2m8 0h3m1 0h1m2 0h1m5 0h1M1 3.5h1m1 0h3m1 0h1m2 0h2m1 0h1m2 0h1m2 0h3m3 0h3m2 0h1m1 0h2m1 0h1m1 0h3m1 0h1M1 4.5h1m1 0h3m1 0h1m3 0h4m2 0h1m2 0h4m1 0h1m1 0h4m1 0h2m1 0h1m1 0h3m1 0h1M1 5.5h1m1 0h3m1 0h1m1 0h3m1 0h3m1 0h1m4 0h3m2 0h1m1 0h3m1 0h1m1 0h1m1 0h3m1 0h1M1 6.5h1m5 0h1m3 0h2m2 0h2m2 0h1m1 0h1m2 0h1m2 0h1m2 0h4m1 0h1m5 0h1M1 7.5h7m1 0h1m1 0h1m1 0h1m1 0h1m1 0h1m1 0h1m1 0h1m1 0h1m1 0h1m1 0h1m1 0h1m1 0h1m1 0h1m1 0h7M9 8.5h2m1 0h7m1 0h8m3 0h1M3 9.5h2m2 0h4m1 0h1m1 0h1m3 0h2m1 0h1m1 0h2m2 0h2m1 0h1m2 0h3m1 0h1M1 10.5h2m2 0h1m3 0h1m4 0h1m1 0h4m3 0h3m1 0h3m1 0h2m1 0h3m1 0h1m1 0h1M2 11.5h1m3 0h2m1 0h2m1 0h1m2 0h4m3 0h1m2 0h2m3 0h1m2 0h1m1 0h2m2 0h1m1 0h1M1 12.5h1m1 0h1m1 0h2m7 0h1m3 0h6m3 0h1m3 0h1m2 0h3m4 0h1M2 13.5h1m2 0h1m1 0h4m3 0h2m5 0h2m2 0h1m5 0h1m3 0h2m3 0h1M2 14.5h1m2 0h1m2 0h5m3 0h1m1 0h1m3 0h3m1 0h2m2 0h1m2 0h2m3 0h2M1 15.5h1m1 0h3m1 0h8m2 0h3m5 0h1m2 0h2m4 0h1m1 0h1m4 0h1M1 16.5h3m1 0h1m3 0h2m4 0h2m2 0h1m3 0h2m4 0h3m2 0h5M1 17.5h1m1 0h1m1 0h3m2 0h1m2 0h5m1 0h1m5 0h1m2 0h3m1 0h1m1 0h1m1 0h1m2 0h3M1 18.5h1m2 0h1m1 0h1m2 0h2m2 0h1m1 0h1m4 0h3m1 0h2m4 0h1m3 0h3m1 0h3M1 19.5h1m5 0h2m1 0h2m1 0h6m4 0h1m1 0h1m1 0h1m1 0h2m1 0h2m1 0h4M1 20.5h6m6 0h2m2 0h4m1 0h1m2 0h3m1 0h3m2 0h1m4 0h3M1 21.5h1m1 0h1m2 0h2m2 0h2m2 0h1m1 0h2m1 0h2m1 0h1m2 0h1m1 0h3m1 0h1m1 0h1m1 0h3m2 0h1M1 22.5h1m2 0h3m1 0h1m9 0h1m1 0h5m3 0h5M2 23.5h1m1 0h6m4 0h1m4 0h2m1 0h1m3 0h1m2 0h1m5 0h1m2 0h3M1 24.5h3m5 0h1m2 0h1m1 0h1m1 0h1m2 0h1m1 0h1m1 0h1m2 0h2m2 0h7m1 0h1M1 25.5h1m5 0h1m2 0h3m1 0h2m2 0h3m1 0h1m5 0h7m2 0h1m1 0h1M1 26.5h1m1 0h1m1 0h1m3 0h1m2 0h1m2 0h1m3 0h1m1 0h1m1 0h2m2 0h1m4 0h1m1 0h1m1 0h1m1 0h1m1 0h1M2 27.5h2m1 0h1m1 0h2m1 0h3m1 0h2m3 0h4m2 0h1m2 0h1m2 0h2m2 0h2m2 0h2M4 28.5h1m1 0h1m1 0h1m2 0h1m3 0h3m4 0h1m5 0h2m7 0h2M2 29.5h1m1 0h4m1 0h1m1 0h1m2 0h6m2 0h1m1 0h4m1 0h1m3 0h1m1 0h2m2 0h1m1 0h1M3 30.5h1m2 0h1m2 0h1m2 0h1m2 0h1m2 0h1m1 0h1m3 0h1m2 0h3m1 0h5m1 0h4M1 31.5h1m1 0h2m1 0h4m1 0h1m1 0h2m2 0h1m2 0h1m1 0h2m5 0h1m1 0h3m1 0h1m1 0h2M3 32.5h2m5 0h2m5 0h1m2 0h1m3 0h1m5 0h2m2 0h3m1 0h3M2 33.5h6m2 0h3m1 0h1m1 0h1m1 0h1m5 0h2m2 0h1m3 0h6m3 0h1M9 34.5h1m2 0h1m2 0h3m1 0h1m2 0h3m1 0h1m3 0h4m3 0h2m1 0h1M1 35.5h7m1 0h3m1 0h1m2 0h1m1 0h2m1 0h3m1 0h5m1 0h3m1 0h1m1 0h3m1 0h1M1 36.5h1m5 0h1m2 0h1m2 0h1m1 0h1m2 0h1m1 0h1m3 0h1m2 0h1m4 0h2m3 0h1m2 0h2M1 37.5h1m1 0h3m1 0h1m2 0h3m4 0h1m2 0h1m2 0h1m1 0h1m3 0h10m1 0h1M1 38.5h1m1 0h3m1 0h1m1 0h2m4 0h2m1 0h1m4 0h1m1 0h2m2 0h1m2 0h2m2 0h1m2 0h1M1 39.5h1m1 0h3m1 0h1m1 0h4m4 0h1m1 0h4m1 0h1m1 0h1m5 0h2m2 0h1m4 0h1M1 40.5h1m5 0h1m2 0h5m1 0h1m1 0h4m1 0h2m3 0h9m1 0h3M1 41.5h7m2 0h3m1 0h2m2 0h2m1 0h1m1 0h4m1 0h2m3 0h2m1 0h5"/>
  </g>
  
  <!-- Header section -->
  <rect x="20" y="20" width="2008" height="60" fill="#ffffff" rx="10" opacity="0.95"/>
  
  <!-- Title text -->
  <text x="1024" y="45" text-anchor="middle" 
        font-family="Arial, sans-serif" font-weight="bold" font-size="24" fill="#065f46">
    TOKEN CRUNCHIES
  </text>
  
  <text x="1024" y="65" text-anchor="middle" 
        font-family="Arial, sans-serif" font-weight="normal" font-size="14" fill="#065f46" opacity="0.8">
    NORMAL QR CODE
  </text>
  
  <!-- QR Name and details -->
  <rect x="20" y="1928" width="2008" height="80" fill="#ffffff" rx="10" opacity="0.95"/>
  
  <!-- Rarity emoji -->
  <text x="50" y="1973" font-size="32">⭐</text>
  
  <!-- QR name -->
  <text x="90" y="1963" 
        font-family="Arial, sans-serif" font-weight="bold" font-size="20" fill="#065f46">
    Food Court Hunter
  </text>
  
  <!-- Token reward -->
  <text x="90" y="1983" 
        font-family="Arial, sans-serif" font-weight="normal" font-size="14" fill="#065f46" opacity="0.8">
    100 Tokens • NORMAL
  </text>
  
  <!-- Scan instruction -->
  <text x="1024" y="2023" text-anchor="middle" 
        font-family="Arial, sans-serif" font-weight="normal" font-size="12" fill="#ffffff" opacity="0.7">
    Scan with Token Crunchies App
  </text>
  
  <!-- Decorative elements -->
  <circle cx="1998" cy="50" r="15" fill="#ffffff" opacity="0.2"/>
  <circle cx="1998" cy="50" r="8" fill="#ffffff" opacity="0.4"/>
  <circle cx="1998" cy="50" r="3" fill="#ffffff"/>
</svg>