
<svg width="2048" height="2048" viewBox="0 0 2048 2048" xmlns="http://www.w3.org/2000/svg">
  <defs>
    <!-- Gradient backgrounds -->
    <linearGradient id="bgGradient" x1="0%" y1="0%" x2="100%" y2="100%">
      <stop offset="0%" style="stop-color:#1e3a8a;stop-opacity:1" />
      <stop offset="100%" style="stop-color:#3b82f6;stop-opacity:1" />
    </linearGradient>
    
    <!-- Glow effect -->
    <filter id="glow">
      <feGaussianBlur stdDeviation="3" result="coloredBlur"/>
      <feMerge> 
        <feMergeNode in="coloredBlur"/>
        <feMergeNode in="SourceGraphic"/>
      </feMerge>
    </filter>
    
    <!-- Drop shadow -->
    <filter id="dropshadow" x="-20%" y="-20%" width="140%" height="140%">
      <feDropShadow dx="0" dy="4" stdDeviation="8" flood-color="rgba(0,0,0,0.3)"/>
    </filter>
  </defs>
  
  <!-- Background with gradient -->
  <rect width="2048" height="2048" fill="url(#bgGradient)" rx="20"/>
  
  <!-- Decorative corner elements -->
  <g stroke="#ffffff" stroke-width="3" fill="none" opacity="0.3">
    <!-- Top left corner -->
    <path d="M 30 30 L 30 60 M 30 30 L 60 30"/>
    <!-- Top right corner -->
    <path d="M 2018 30 L 2018 60 M 2018 30 L 1988 30"/>
    <!-- Bottom left corner -->
    <path d="M 30 2018 L 30 1988 M 30 2018 L 60 2018"/>
    <!-- Bottom right corner -->
    <path d="M 2018 2018 L 2018 1988 M 2018 2018 L 1988 2018"/>
  </g>
  
  <!-- Main QR code area background -->
  <rect x="50" y="100" width="1948" height="1948" 
        fill="#ffffff" rx="15" filter="url(#dropshadow)"/>
  
  <!-- QR Code -->
  <g transform="translate(60, 110)">
    <path fill="#1e3a8a" fill="#1e3a8a" d="M0 0h43v43H0z"/><path fill="#1e3a8a" stroke="#ffffff" d="M1 1.5h7m3 0h1m1 0h1m1 0h4m1 0h1m1 0h2m2 0h1m1 0h1m1 0h1m1 0h1m2 0h7M1 2.5h1m5 0h1m2 0h2m1 0h1m1 0h1m4 0h1m2 0h1m2 0h1m1 0h1m1 0h1m1 0h1m2 0h1m5 0h1M1 3.5h1m1 0h3m1 0h1m2 0h4m1 0h1m2 0h3m2 0h1m5 0h1m1 0h2m2 0h1m1 0h3m1 0h1M1 4.5h1m1 0h3m1 0h1m5 0h3m1 0h1m3 0h1m5 0h3m3 0h1m1 0h1m1 0h3m1 0h1M1 5.5h1m1 0h3m1 0h1m1 0h2m1 0h3m1 0h1m2 0h2m1 0h1m1 0h2m1 0h1m1 0h2m2 0h1m1 0h1m1 0h3m1 0h1M1 6.5h1m5 0h1m3 0h1m1 0h1m1 0h3m1 0h2m4 0h1m1 0h7m1 0h1m5 0h1M1 7.5h7m1 0h1m1 0h1m1 0h1m1 0h1m1 0h1m1 0h1m1 0h1m1 0h1m1 0h1m1 0h1m1 0h1m1 0h1m1 0h1m1 0h7M9 8.5h2m1 0h1m1 0h2m1 0h2m3 0h8m1 0h1M3 9.5h2m2 0h4m3 0h1m3 0h2m1 0h1m1 0h1m3 0h1m2 0h1m1 0h4m1 0h1M1 10.5h2m3 0h1m1 0h2m6 0h2m1 0h1m3 0h3m1 0h6m1 0h1m1 0h3m1 0h1M1 11.5h2m1 0h2m1 0h1m1 0h4m1 0h6m5 0h3m2 0h1m2 0h3m3 0h3M1 12.5h1m1 0h1m1 0h1m2 0h1m2 0h1m6 0h1m1 0h4m3 0h1m6 0h2m4 0h2M1 13.5h4m1 0h6m1 0h3m3 0h1m2 0h2m1 0h1m4 0h2m3 0h2m3 0h1M2 14.5h1m1 0h2m2 0h1m1 0h4m1 0h1m1 0h1m2 0h1m1 0h4m6 0h1m1 0h1m3 0h4M1 15.5h1m2 0h2m1 0h3m10 0h4m3 0h1m1 0h1m1 0h1m2 0h1m1 0h1m3 0h2M1 16.5h3m1 0h1m7 0h2m3 0h6m1 0h6m2 0h6M1 17.5h1m1 0h1m1 0h4m2 0h1m4 0h1m1 0h2m1 0h1m3 0h1m3 0h2m2 0h2m1 0h1m2 0h3M4 18.5h3m2 0h4m2 0h1m2 0h2m1 0h2m1 0h1m1 0h2m2 0h1m1 0h5m2 0h2M2 19.5h1m2 0h4m1 0h1m1 0h4m1 0h1m2 0h1m1 0h2m2 0h1m2 0h1m1 0h1m1 0h1m1 0h4M3 20.5h4m5 0h1m2 0h1m4 0h3m2 0h2m2 0h3m1 0h1m5 0h3M1 21.5h3m1 0h3m2 0h3m1 0h2m1 0h2m1 0h1m3 0h1m2 0h1m1 0h1m3 0h1m4 0h3M2 22.5h4m2 0h2m5 0h1m2 0h2m1 0h2m1 0h1m3 0h1m1 0h5m1 0h1m2 0h1M1 23.5h1m3 0h3m1 0h1m4 0h1m2 0h1m1 0h1m1 0h2m1 0h1m1 0h1m2 0h1m2 0h1m5 0h3M5 24.5h2m1 0h2m2 0h3m1 0h1m2 0h1m1 0h1m1 0h1m2 0h7m1 0h3m1 0h2M3 25.5h3m1 0h2m1 0h3m1 0h3m1 0h2m2 0h1m5 0h4m1 0h2m2 0h2M1 26.5h1m1 0h1m1 0h1m6 0h1m1 0h2m3 0h1m1 0h1m1 0h2m1 0h2m4 0h1m5 0h1m1 0h1M1 27.5h1m2 0h1m1 0h2m2 0h1m1 0h1m5 0h4m3 0h1m2 0h1m3 0h1m1 0h3m2 0h3M5 28.5h2m2 0h1m1 0h1m4 0h3m3 0h2m4 0h2m6 0h3M3 29.5h8m4 0h2m1 0h2m1 0h1m2 0h1m2 0h1m1 0h1m4 0h3m2 0h1M9 30.5h1m1 0h1m2 0h4m3 0h2m1 0h1m1 0h1m2 0h4m2 0h1m2 0h2M1 31.5h1m1 0h2m1 0h2m4 0h1m1 0h1m1 0h1m1 0h4m1 0h1m3 0h3m2 0h2m1 0h1m1 0h2M8 32.5h2m2 0h2m1 0h3m2 0h1m2 0h1m1 0h1m1 0h1m3 0h1m1 0h4m1 0h2M2 33.5h1m1 0h5m2 0h1m1 0h1m1 0h3m4 0h1m2 0h1m2 0h1m1 0h1m2 0h5m3 0h1M9 34.5h4m1 0h4m1 0h2m2 0h1m1 0h1m1 0h2m2 0h1m1 0h1m3 0h4M1 35.5h7m1 0h1m1 0h2m1 0h1m5 0h1m1 0h2m2 0h8m1 0h1m1 0h3m1 0h1M1 36.5h1m5 0h1m2 0h2m1 0h1m3 0h1m1 0h4m1 0h1m1 0h1m4 0h1m1 0h1m3 0h2m1 0h2M1 37.5h1m1 0h3m1 0h1m3 0h5m2 0h1m1 0h2m1 0h1m1 0h1m6 0h6m2 0h1M1 38.5h1m1 0h3m1 0h1m1 0h2m1 0h1m3 0h1m1 0h2m1 0h1m3 0h2m1 0h1m4 0h1m2 0h1m1 0h2M1 39.5h1m1 0h3m1 0h1m1 0h5m5 0h1m2 0h1m1 0h1m1 0h1m1 0h1m7 0h1m4 0h1M1 40.5h1m5 0h1m2 0h5m2 0h4m2 0h2m3 0h1m1 0h3m1 0h1m1 0h1m2 0h2M1 41.5h7m2 0h2m2 0h2m2 0h2m1 0h1m1 0h1m1 0h2m1 0h2m2 0h3m1 0h2m1 0h2"/>
  </g>
  
  <!-- Header section -->
  <rect x="20" y="20" width="2008" height="60" fill="#ffffff" rx="10" opacity="0.95"/>
  
  <!-- Title text -->
  <text x="1024" y="45" text-anchor="middle" 
        font-family="Arial, sans-serif" font-weight="bold" font-size="24" fill="#1e3a8a">
    TOKEN CRUNCHIES
  </text>
  
  <text x="1024" y="65" text-anchor="middle" 
        font-family="Arial, sans-serif" font-weight="normal" font-size="14" fill="#1e3a8a" opacity="0.8">
    RARE QR CODE
  </text>
  
  <!-- QR Name and details -->
  <rect x="20" y="1928" width="2008" height="80" fill="#ffffff" rx="10" opacity="0.95"/>
  
  <!-- Rarity emoji -->
  <text x="50" y="1973" font-size="32">💎</text>
  
  <!-- QR name -->
  <text x="90" y="1963" 
        font-family="Arial, sans-serif" font-weight="bold" font-size="20" fill="#1e3a8a">
    Pocket Treasure
  </text>
  
  <!-- Token reward -->
  <text x="90" y="1983" 
        font-family="Arial, sans-serif" font-weight="normal" font-size="14" fill="#1e3a8a" opacity="0.8">
    250 Tokens • RARE
  </text>
  
  <!-- Scan instruction -->
  <text x="1024" y="2023" text-anchor="middle" 
        font-family="Arial, sans-serif" font-weight="normal" font-size="12" fill="#ffffff" opacity="0.7">
    Scan with Token Crunchies App
  </text>
  
  <!-- Decorative elements -->
  <circle cx="1998" cy="50" r="15" fill="#ffffff" opacity="0.2"/>
  <circle cx="1998" cy="50" r="8" fill="#ffffff" opacity="0.4"/>
  <circle cx="1998" cy="50" r="3" fill="#ffffff"/>
</svg>